<svg width="258" height="402" viewBox="0 0 258 402" fill="none" xmlns="http://www.w3.org/2000/svg">
<g filter="url(#filter0_d_121_168)">
<path d="M40 393.5C35.1856 393.5 30.5962 392.542 26.4112 390.806L26.0281 391.73C30.3324 393.515 35.0518 394.5 40 394.5V393.5ZM7.19356 371.589C5.4581 367.404 4.5 362.814 4.5 358H3.5C3.5 362.948 4.4849 367.668 6.26983 371.972L7.19356 371.589ZM4.5 358V341.9H3.5V358H4.5ZM4.5 309.7V277.5H3.5V309.7H4.5ZM4.5 245.3V213.1H3.5V245.3H4.5ZM4.5 180.9V148.7H3.5V180.9H4.5ZM4.5 116.5V84.3H3.5V116.5H4.5ZM4.5 52.1V36H3.5V52.1H4.5ZM4.5 36C4.5 31.1856 5.4581 26.5962 7.19356 22.4112L6.26984 22.0281C4.4849 26.3324 3.5 31.0518 3.5 36H4.5ZM26.4112 3.19356C30.5962 1.4581 35.1856 0.5 40 0.5V-0.5C35.0518 -0.5 30.3324 0.484904 26.0281 2.26984L26.4112 3.19356ZM40 0.5H54.8333V-0.5H40V0.5ZM84.5 0.5H114.167V-0.5H84.5V0.5ZM143.833 0.5H173.5V-0.5H143.833V0.5ZM203.167 0.5H218V-0.5H203.167V0.5ZM218 0.5C222.814 0.5 227.404 1.4581 231.589 3.19356L231.972 2.26984C227.668 0.484904 222.948 -0.5 218 -0.5V0.5ZM250.806 22.4112C252.542 26.5962 253.5 31.1856 253.5 36H254.5C254.5 31.0518 253.515 26.3324 251.73 22.0281L250.806 22.4112ZM253.5 36V52.1H254.5V36H253.5ZM253.5 84.3V116.5H254.5V84.3H253.5ZM253.5 148.7V180.9H254.5V148.7H253.5ZM253.5 213.1V245.3H254.5V213.1H253.5ZM253.5 277.5V309.7H254.5V277.5H253.5ZM253.5 341.9V358H254.5V341.9H253.5ZM253.5 358C253.5 362.814 252.542 367.404 250.806 371.589L251.73 371.972C253.515 367.668 254.5 362.948 254.5 358H253.5ZM231.589 390.806C227.404 392.542 222.814 393.5 218 393.5V394.5C222.948 394.5 227.668 393.515 231.972 391.73L231.589 390.806ZM218 393.5H203.167V394.5H218V393.5ZM173.5 393.5H143.833V394.5H173.5V393.5ZM114.167 393.5H84.5V394.5H114.167V393.5ZM54.8333 393.5H40V394.5H54.8333V393.5ZM40 393C35.2525 393 30.7281 392.055 26.6027 390.345L25.8366 392.192C30.2006 394.002 34.985 395 40 395V393ZM7.65542 371.397C5.9447 367.272 5 362.748 5 358H3C3 363.015 3.99831 367.799 5.80797 372.163L7.65542 371.397ZM5 358V341.9H3V358H5ZM5 309.7V277.5H3V309.7H5ZM5 245.3V213.1H3V245.3H5ZM5 180.9V148.7H3V180.9H5ZM5 116.5V84.3H3V116.5H5ZM5 52.1V36H3V52.1H5ZM5 36C5 31.2525 5.9447 26.7281 7.65543 22.6027L5.80797 21.8366C3.99831 26.2006 3 30.985 3 36H5ZM26.6027 3.65543C30.7281 1.9447 35.2525 1 40 1V-1C34.985 -1 30.2006 -0.00169385 25.8366 1.80797L26.6027 3.65543ZM40 1H54.8333V-1H40V1ZM84.5 1H114.167V-1H84.5V1ZM143.833 1H173.5V-1H143.833V1ZM203.167 1H218V-1H203.167V1ZM218 1C222.748 1 227.272 1.9447 231.397 3.65543L232.163 1.80797C227.799 -0.00169381 223.015 -1 218 -1V1ZM250.345 22.6027C252.055 26.7281 253 31.2525 253 36H255C255 30.985 254.002 26.2006 252.192 21.8366L250.345 22.6027ZM253 36V52.1H255V36H253ZM253 84.3V116.5H255V84.3H253ZM253 148.7V180.9H255V148.7H253ZM253 213.1V245.3H255V213.1H253ZM253 277.5V309.7H255V277.5H253ZM253 341.9V358H255V341.9H253ZM253 358C253 362.748 252.055 367.272 250.345 371.397L252.192 372.163C254.002 367.799 255 363.015 255 358H253ZM231.397 390.345C227.272 392.055 222.748 393 218 393V395C223.015 395 227.799 394.002 232.163 392.192L231.397 390.345ZM218 393H203.167V395H218V393ZM173.5 393H143.833V395H173.5V393ZM114.167 393H84.5V395H114.167V393ZM54.8333 393H40V395H54.8333V393Z" fill="white"/>
</g>
<rect x="123" y="153" width="13" height="87" fill="#D9D9D9"/>
<rect x="86" y="203" width="13" height="87" transform="rotate(-90 86 203)" fill="#D9D9D9"/>
<defs>
<filter id="filter0_d_121_168" x="0" y="0" width="258" height="402" filterUnits="userSpaceOnUse" color-interpolation-filters="sRGB">
<feFlood flood-opacity="0" result="BackgroundImageFix"/>
<feColorMatrix in="SourceAlpha" type="matrix" values="0 0 0 0 0 0 0 0 0 0 0 0 0 0 0 0 0 0 127 0" result="hardAlpha"/>
<feOffset dy="4"/>
<feGaussianBlur stdDeviation="2"/>
<feComposite in2="hardAlpha" operator="out"/>
<feColorMatrix type="matrix" values="0 0 0 0 0 0 0 0 0 0 0 0 0 0 0 0 0 0 0.25 0"/>
<feBlend mode="normal" in2="BackgroundImageFix" result="effect1_dropShadow_121_168"/>
<feBlend mode="normal" in="SourceGraphic" in2="effect1_dropShadow_121_168" result="shape"/>
</filter>
</defs>
</svg>
