<svg width="241" height="403" viewBox="0 0 241 403" fill="none" xmlns="http://www.w3.org/2000/svg">
<g filter="url(#filter0_d_10_888)">
<rect x="116" y="141" width="13" height="87" fill="#D9D9D9"/>
<rect x="79" y="191" width="13" height="87" transform="rotate(-90 79 191)" fill="#D9D9D9"/>
<path d="M40 393.82C35.1856 393.82 30.5962 392.862 26.4112 391.126L26.0281 392.05C30.3324 393.835 35.0518 394.82 40 394.82V393.82ZM7.19356 371.909C5.4581 367.724 4.5 363.134 4.5 358.32H3.5C3.5 363.268 4.4849 367.988 6.26984 372.292L7.19356 371.909ZM4.5 358.32V342.204H3.5V358.32H4.5ZM4.5 309.972V277.74H3.5V309.972H4.5ZM4.5 245.508V213.276H3.5V245.508H4.5ZM4.5 181.044V148.812H3.5V181.044H4.5ZM4.5 116.58V84.348H3.5V116.58H4.5ZM4.5 52.116V36H3.5V52.116H4.5ZM4.5 36C4.5 31.1855 5.4581 26.5962 7.19356 22.4111L6.26984 22.0281C4.4849 26.3324 3.5 31.0518 3.5 36H4.5ZM26.4112 3.19355C30.5962 1.4581 35.1856 0.5 40 0.5V-0.5C35.0518 -0.5 30.3324 0.484901 26.0281 2.26983L26.4112 3.19355ZM40 0.5H53.4167V-0.5H40V0.5ZM80.25 0.5H107.083V-0.5H80.25V0.5ZM133.917 0.5H160.75V-0.5H133.917V0.5ZM187.583 0.5H201V-0.5H187.583V0.5ZM201 0.5C205.814 0.5 210.404 1.4581 214.589 3.19356L214.972 2.26984C210.668 0.484904 205.948 -0.5 201 -0.5V0.5ZM233.806 22.4112C235.542 26.5962 236.5 31.1856 236.5 36H237.5C237.5 31.0518 236.515 26.3324 234.73 22.0281L233.806 22.4112ZM236.5 36V52.116H237.5V36H236.5ZM236.5 84.348V116.58H237.5V84.348H236.5ZM236.5 148.812V181.044H237.5V148.812H236.5ZM236.5 213.276V245.508H237.5V213.276H236.5ZM236.5 277.74V309.972H237.5V277.74H236.5ZM236.5 342.204V358.32H237.5V342.204H236.5ZM236.5 358.32C236.5 363.134 235.542 367.724 233.806 371.909L234.73 372.292C236.515 367.988 237.5 363.268 237.5 358.32H236.5ZM214.589 391.126C210.404 392.862 205.814 393.82 201 393.82V394.82C205.948 394.82 210.668 393.835 214.972 392.05L214.589 391.126ZM201 393.82H187.583V394.82H201V393.82ZM160.75 393.82H133.917V394.82H160.75V393.82ZM107.083 393.82H80.25V394.82H107.083V393.82ZM53.4167 393.82H40V394.82H53.4167V393.82ZM40 393.32C35.2525 393.32 30.7281 392.375 26.6027 390.665L25.8366 392.512C30.2006 394.322 34.985 395.32 40 395.32V393.32ZM7.65542 371.717C5.9447 367.592 5 363.068 5 358.32H3C3 363.335 3.99831 368.119 5.80797 372.483L7.65542 371.717ZM5 358.32V342.204H3V358.32H5ZM5 309.972V277.74H3V309.972H5ZM5 245.508V213.276H3V245.508H5ZM5 181.044V148.812H3V181.044H5ZM5 116.58V84.348H3V116.58H5ZM5 52.116V36H3V52.116H5ZM5 36C5 31.2524 5.9447 26.728 7.65543 22.6027L5.80797 21.8366C3.99831 26.2005 3 30.9849 3 36H5ZM26.6027 3.65542C30.7281 1.94469 35.2525 1 40 1V-1C34.985 -1 30.2006 -0.00169726 25.8366 1.80796L26.6027 3.65542ZM40 1H53.4167V-1H40V1ZM80.25 1H107.083V-1H80.25V1ZM133.917 1H160.75V-1H133.917V1ZM187.583 1H201V-1H187.583V1ZM201 1C205.748 1 210.272 1.9447 214.397 3.65543L215.163 1.80797C210.799 -0.00169374 206.015 -1 201 -1V1ZM233.345 22.6027C235.055 26.7281 236 31.2525 236 36H238C238 30.985 237.002 26.2006 235.192 21.8366L233.345 22.6027ZM236 36V52.116H238V36H236ZM236 84.348V116.58H238V84.348H236ZM236 148.812V181.044H238V148.812H236ZM236 213.276V245.508H238V213.276H236ZM236 277.74V309.972H238V277.74H236ZM236 342.204V358.32H238V342.204H236ZM236 358.32C236 363.068 235.055 367.592 233.345 371.717L235.192 372.483C237.002 368.119 238 363.335 238 358.32H236ZM214.397 390.665C210.272 392.375 205.748 393.32 201 393.32V395.32C206.015 395.32 210.799 394.322 215.163 392.512L214.397 390.665ZM201 393.32H187.583V395.32H201V393.32ZM160.75 393.32H133.917V395.32H160.75V393.32ZM107.083 393.32H80.25V395.32H107.083V393.32ZM53.4167 393.32H40V395.32H53.4167V393.32Z" fill="white"/>
</g>
<defs>
<filter id="filter0_d_10_888" x="0" y="0" width="241" height="402.32" filterUnits="userSpaceOnUse" color-interpolation-filters="sRGB">
<feFlood flood-opacity="0" result="BackgroundImageFix"/>
<feColorMatrix in="SourceAlpha" type="matrix" values="0 0 0 0 0 0 0 0 0 0 0 0 0 0 0 0 0 0 127 0" result="hardAlpha"/>
<feOffset dy="4"/>
<feGaussianBlur stdDeviation="2"/>
<feComposite in2="hardAlpha" operator="out"/>
<feColorMatrix type="matrix" values="0 0 0 0 0 0 0 0 0 0 0 0 0 0 0 0 0 0 0.25 0"/>
<feBlend mode="normal" in2="BackgroundImageFix" result="effect1_dropShadow_10_888"/>
<feBlend mode="normal" in="SourceGraphic" in2="effect1_dropShadow_10_888" result="shape"/>
</filter>
</defs>
</svg>
