<svg width="241" height="380" viewBox="0 0 241 380" fill="none" xmlns="http://www.w3.org/2000/svg">
<g filter="url(#filter0_d_10_888)">
<rect x="116" y="141" width="13" height="87" fill="#D9D9D9"/>
<rect x="79" y="191" width="13" height="87" transform="rotate(-90 79 191)" fill="#D9D9D9"/>
<path d="M40 371.5C35.1856 371.5 30.5962 370.542 26.4112 368.806L26.0281 369.73C30.3324 371.515 35.0518 372.5 40 372.5V371.5ZM7.19356 349.589C5.4581 345.404 4.5 340.814 4.5 336H3.5C3.5 340.948 4.4849 345.668 6.26984 349.972L7.19356 349.589ZM4.5 336V321H3.5V336H4.5ZM4.5 291V261H3.5V291H4.5ZM4.5 231V201H3.5V231H4.5ZM4.5 171V141H3.5V171H4.5ZM4.5 111V81H3.5V111H4.5ZM4.5 51V36H3.5V51H4.5ZM4.5 36C4.5 31.1856 5.4581 26.5962 7.19356 22.4112L6.26984 22.0281C4.4849 26.3324 3.5 31.0518 3.5 36H4.5ZM26.4112 3.19356C30.5962 1.4581 35.1856 0.5 40 0.5V-0.5C35.0518 -0.5 30.3324 0.484904 26.0281 2.26984L26.4112 3.19356ZM40 0.5H53.4167V-0.5H40V0.5ZM80.25 0.5H107.083V-0.5H80.25V0.5ZM133.917 0.5H160.75V-0.5H133.917V0.5ZM187.583 0.5H201V-0.5H187.583V0.5ZM201 0.5C205.814 0.5 210.404 1.4581 214.589 3.19356L214.972 2.26984C210.668 0.484904 205.948 -0.5 201 -0.5V0.5ZM233.806 22.4112C235.542 26.5962 236.5 31.1856 236.5 36H237.5C237.5 31.0518 236.515 26.3324 234.73 22.0281L233.806 22.4112ZM236.5 36V51H237.5V36H236.5ZM236.5 81V111H237.5V81H236.5ZM236.5 141V171H237.5V141H236.5ZM236.5 201V231H237.5V201H236.5ZM236.5 261V291H237.5V261H236.5ZM236.5 321V336H237.5V321H236.5ZM236.5 336C236.5 340.814 235.542 345.404 233.806 349.589L234.73 349.972C236.515 345.668 237.5 340.948 237.5 336H236.5ZM214.589 368.806C210.404 370.542 205.814 371.5 201 371.5V372.5C205.948 372.5 210.668 371.515 214.972 369.73L214.589 368.806ZM201 371.5H187.583V372.5H201V371.5ZM160.75 371.5H133.917V372.5H160.75V371.5ZM107.083 371.5H80.25V372.5H107.083V371.5ZM53.4167 371.5H40V372.5H53.4167V371.5ZM40 371C35.2525 371 30.7281 370.055 26.6027 368.345L25.8366 370.192C30.2006 372.002 34.985 373 40 373V371ZM7.65542 349.397C5.9447 345.272 5 340.748 5 336H3C3 341.015 3.99831 345.799 5.80797 350.163L7.65542 349.397ZM5 336V321H3V336H5ZM5 291V261H3V291H5ZM5 231V201H3V231H5ZM5 171V141H3V171H5ZM5 111V81H3V111H5ZM5 51V36H3V51H5ZM5 36C5 31.2525 5.9447 26.7281 7.65543 22.6027L5.80797 21.8366C3.99831 26.2006 3 30.985 3 36H5ZM26.6027 3.65543C30.7281 1.9447 35.2525 1 40 1V-1C34.985 -1 30.2006 -0.00169382 25.8366 1.80797L26.6027 3.65543ZM40 1H53.4167V-1H40V1ZM80.25 1H107.083V-1H80.25V1ZM133.917 1H160.75V-1H133.917V1ZM187.583 1H201V-1H187.583V1ZM201 1C205.748 1 210.272 1.9447 214.397 3.65543L215.163 1.80797C210.799 -0.00169392 206.015 -1 201 -1V1ZM233.345 22.6027C235.055 26.7281 236 31.2525 236 36H238C238 30.985 237.002 26.2006 235.192 21.8366L233.345 22.6027ZM236 36V51H238V36H236ZM236 81V111H238V81H236ZM236 141V171H238V141H236ZM236 201V231H238V201H236ZM236 261V291H238V261H236ZM236 321V336H238V321H236ZM236 336C236 340.748 235.055 345.272 233.345 349.397L235.192 350.163C237.002 345.799 238 341.015 238 336H236ZM214.397 368.345C210.272 370.055 205.748 371 201 371V373C206.015 373 210.799 372.002 215.163 370.192L214.397 368.345ZM201 371H187.583V373H201V371ZM160.75 371H133.917V373H160.75V371ZM107.083 371H80.25V373H107.083V371ZM53.4167 371H40V373H53.4167V371Z" fill="white"/>
</g>
<defs>
<filter id="filter0_d_10_888" x="0" y="0" width="241" height="380" filterUnits="userSpaceOnUse" color-interpolation-filters="sRGB">
<feFlood flood-opacity="0" result="BackgroundImageFix"/>
<feColorMatrix in="SourceAlpha" type="matrix" values="0 0 0 0 0 0 0 0 0 0 0 0 0 0 0 0 0 0 127 0" result="hardAlpha"/>
<feOffset dy="4"/>
<feGaussianBlur stdDeviation="2"/>
<feComposite in2="hardAlpha" operator="out"/>
<feColorMatrix type="matrix" values="0 0 0 0 0 0 0 0 0 0 0 0 0 0 0 0 0 0 0.25 0"/>
<feBlend mode="normal" in2="BackgroundImageFix" result="effect1_dropShadow_10_888"/>
<feBlend mode="normal" in="SourceGraphic" in2="effect1_dropShadow_10_888" result="shape"/>
</filter>
</defs>
</svg>
