<svg width="96" height="96" viewBox="0 0 96 96" fill="none" xmlns="http://www.w3.org/2000/svg">
<g filter="url(#filter0_i_82_47)">
<path d="M24.2091 18.4256L22.6484 16.8584C21.0877 15.2913 18.5666 15.3315 17.0459 16.8584L17.0059 16.8986C15.4451 18.4658 15.4451 20.9973 17.0059 22.5242L18.5666 24.0913C20.1273 25.6584 22.6084 25.6584 24.1691 24.0913L24.2091 24.0511C25.7698 22.5242 25.7698 19.9525 24.2091 18.4256ZM12.0436 43.9817H7.96174C5.76074 43.9817 3.99994 45.7498 3.99994 47.9598V48C3.99994 50.21 5.76074 51.9781 7.96174 51.9781H12.0036C14.2446 52.0183 16.0054 50.2502 16.0054 48.0402V48C16.0054 45.7498 14.2446 43.9817 12.0436 43.9817ZM48.06 4H48.02C45.7789 4 44.0181 5.76804 44.0181 7.97808V11.8356C44.0181 14.0457 45.7789 15.8137 47.9799 15.8137H48.02C50.261 15.8539 52.0218 14.0858 52.0218 11.8758V7.97808C52.0218 5.76804 50.261 4 48.06 4ZM79.034 16.8986C77.4733 15.3315 74.9522 15.3315 73.3915 16.8584L71.8308 18.4256C70.2701 19.9927 70.2701 22.5242 71.8308 24.0511L71.8708 24.0913C73.4315 25.6584 75.9527 25.6584 77.4733 24.0913L79.034 22.5242C80.5948 20.9571 80.5948 18.4658 79.034 16.8986ZM71.7908 77.5744L73.3515 79.1416C74.9122 80.7087 77.4333 80.7087 78.994 79.1416C80.5547 77.5744 80.5547 75.0429 78.994 73.4758L77.4333 71.9087C75.8726 70.3416 73.3515 70.3817 71.8308 71.9087C70.23 73.516 70.23 76.0073 71.7908 77.5744ZM80.0345 47.9598V48C80.0345 50.21 81.7953 51.9781 83.9963 51.9781H88.0381C90.2391 51.9781 91.9999 50.21 91.9999 48V47.9598C91.9999 45.7498 90.2391 43.9817 88.0381 43.9817H83.9963C81.7953 43.9817 80.0345 45.7498 80.0345 47.9598ZM48.02 23.8904C34.7739 23.8904 24.009 34.6995 24.009 48C24.009 61.3005 34.7739 72.1096 48.02 72.1096C61.266 72.1096 72.0309 61.3005 72.0309 48C72.0309 34.6995 61.266 23.8904 48.02 23.8904ZM47.9799 92H48.02C50.221 92 51.9818 90.232 51.9818 88.0219V84.1644C51.9818 81.9543 50.221 80.1863 48.02 80.1863H47.9799C45.7789 80.1863 44.0181 81.9543 44.0181 84.1644V88.0219C44.0181 90.232 45.7789 92 47.9799 92ZM17.0059 79.1014C18.5666 80.6685 21.0877 80.6685 22.6484 79.1014L24.2091 77.5342C25.7698 75.9671 25.7298 73.4356 24.2091 71.9087L24.1691 71.8685C22.6084 70.3014 20.0873 70.3014 18.5265 71.8685L16.9658 73.4356C15.4451 75.0429 15.4451 77.5342 17.0059 79.1014Z" fill="#C1C1C1"/>
</g>
<defs>
<filter id="filter0_i_82_47" x="0" y="0" width="99" height="100" filterUnits="userSpaceOnUse" color-interpolation-filters="sRGB">
<feFlood flood-opacity="0" result="BackgroundImageFix"/>
<feBlend mode="normal" in="SourceGraphic" in2="BackgroundImageFix" result="shape"/>
<feColorMatrix in="SourceAlpha" type="matrix" values="0 0 0 0 0 0 0 0 0 0 0 0 0 0 0 0 0 0 127 0" result="hardAlpha"/>
<feOffset dx="3" dy="4"/>
<feGaussianBlur stdDeviation="2"/>
<feComposite in2="hardAlpha" operator="arithmetic" k2="-1" k3="1"/>
<feColorMatrix type="matrix" values="0 0 0 0 0 0 0 0 0 0 0 0 0 0 0 0 0 0 0.25 0"/>
<feBlend mode="normal" in2="shape" result="effect1_innerShadow_82_47"/>
</filter>
</defs>
</svg>
