<?xml version="1.0" encoding="UTF-8" standalone="no"?>
<!DOCTYPE svg PUBLIC "-//W3C//DTD SVG 1.1//EN" "http://www.w3.org/Graphics/SVG/1.1/DTD/svg11.dtd">
<svg width="100%" height="100%" viewBox="0 0 24 24" version="1.1" xmlns="http://www.w3.org/2000/svg" xmlnsXlink="http://www.w3.org/1999/xlink" xmlSpace="preserve" xmlnsSerif="http://www.serif.com/" style="fill-rule:evenodd;clip-rule:evenodd;stroke-linejoin:round;stroke-miterlimit:2;">
    <path d="M6.052,4.606L5.662,4.215C5.272,3.823 4.642,3.833 4.261,4.215L4.251,4.225C3.861,4.616 3.861,5.249 4.251,5.631L4.642,6.023C5.032,6.415 5.652,6.415 6.042,6.023L6.052,6.013C6.442,5.631 6.442,4.988 6.052,4.606ZM3.011,10.995L1.99,10.995C1.44,10.995 1,11.437 1,11.99L1,12C1,12.553 1.44,12.995 1.99,12.995L3.001,12.995C3.561,13.005 4.001,12.563 4.001,12.01L4.001,12C4.001,11.437 3.561,10.995 3.011,10.995ZM12.015,1L12.005,1C11.445,1 11.005,1.442 11.005,1.995L11.005,2.959C11.005,3.511 11.445,3.953 11.995,3.953L12.005,3.953C12.565,3.963 13.006,3.521 13.006,2.969L13.006,1.995C13.006,1.442 12.565,1 12.015,1ZM19.759,4.225C19.368,3.833 18.738,3.833 18.348,4.215L17.958,4.606C17.568,4.998 17.568,5.631 17.958,6.013L17.968,6.023C18.358,6.415 18.988,6.415 19.368,6.023L19.759,5.631C20.149,5.239 20.149,4.616 19.759,4.225ZM17.948,19.394L18.338,19.785C18.728,20.177 19.358,20.177 19.749,19.785C20.139,19.394 20.139,18.761 19.749,18.369L19.358,17.977C18.968,17.585 18.338,17.595 17.958,17.977C17.558,18.379 17.558,19.002 17.948,19.394ZM20.009,11.99L20.009,12C20.009,12.553 20.449,12.995 20.999,12.995L22.01,12.995C22.56,12.995 23,12.553 23,12L23,11.99C23,11.437 22.56,10.995 22.01,10.995L20.999,10.995C20.449,10.995 20.009,11.437 20.009,11.99ZM12.005,5.973C8.694,5.973 6.002,8.675 6.002,12C6.002,15.325 8.694,18.027 12.005,18.027C15.317,18.027 18.008,15.325 18.008,12C18.008,8.675 15.317,5.973 12.005,5.973ZM11.995,23L12.005,23C12.555,23 12.996,22.558 12.996,22.006L12.996,21.041C12.996,20.489 12.555,20.047 12.005,20.047L11.995,20.047C11.445,20.047 11.005,20.489 11.005,21.041L11.005,22.006C11.005,22.558 11.445,23 11.995,23ZM4.251,19.775C4.642,20.167 5.272,20.167 5.662,19.775L6.052,19.384C6.442,18.992 6.432,18.359 6.052,17.977L6.042,17.967C5.652,17.575 5.022,17.575 4.632,17.967L4.241,18.359C3.861,18.761 3.861,19.384 4.251,19.775Z" style="fill:rgb(193,193,193);fill-rule:nonzero;"/>
</svg>
