<?xml version="1.0" encoding="UTF-8" standalone="no"?>
<!DOCTYPE svg PUBLIC "-//W3C//DTD SVG 1.1//EN" "http://www.w3.org/Graphics/SVG/1.1/DTD/svg11.dtd">
<svg width="100%" height="100%" viewBox="0 0 3366 4518" version="1.1" xmlns="http://www.w3.org/2000/svg" xmlnsXlink="http://www.w3.org/1999/xlink" xmlSpace="preserve" xmlnsSerif="http://www.serif.com/" style="fill-rule:evenodd;clip-rule:evenodd;stroke-linejoin:round;stroke-miterlimit:2;">
    <g transform="matrix(1,0,0,1,-3476.42,-4193.42)">
        <g transform="matrix(1,0,0,1,192.808,592.19)">
            <path d="M3289.44,6575.94C3285.57,6529.57 3283.62,6482.75 3283.62,6435.47C3283.62,6168.53 3345.9,5916.02 3456.73,5691.73L4966.53,3601.23L6148.99,5238.48C5912.08,5004.4 5606.15,4840.08 5264.64,4778.93C5606.15,4840.08 5912.08,5004.4 6148.99,5238.48L6476.34,5691.73C6587.17,5916.02 6649.45,6168.53 6649.45,6435.47C6649.45,6482.75 6647.5,6529.57 6643.63,6575.94C6572.24,7439.11 5848.09,8118.39 4966.53,8118.39C4084.99,8118.39 3360.84,7439.11 3289.44,6575.94ZM4966.53,5786.45C5324.92,5786.45 5615.88,6077.41 5615.88,6435.79C5615.88,6794.17 5324.92,7085.13 4966.53,7085.13C4608.15,7085.13 4317.19,6794.17 4317.19,6435.79C4317.19,6077.41 4608.15,5786.45 4966.53,5786.45ZM3789.43,5233.21C3788.84,5233.79 3788.24,5234.38 3787.65,5234.96C3788.24,5234.38 3788.84,5233.79 3789.43,5233.21ZM4668.54,4778.9L4667.61,4779.07L4668.54,4778.9L4671.11,4778.45L4668.54,4778.9ZM5196.83,4768.21C5219.55,4771.32 5242.11,4774.89 5264.53,4778.9C5242.12,4774.9 5219.55,4771.33 5196.83,4768.21ZM4745.61,4766.95C4742.33,4767.38 4739.04,4767.83 4735.76,4768.28C4739.06,4767.82 4742.34,4767.38 4745.61,4766.95ZM5186.9,4766.88L5189.5,4767.22L5186.9,4766.88L5184.29,4766.54L5186.9,4766.88ZM4756.4,4765.57C4753.86,4765.89 4751.32,4766.21 4748.78,4766.54C4751.35,4766.21 4753.88,4765.89 4756.4,4765.57ZM5177.97,4765.73L5176.46,4765.55C5176.46,4765.55 5177.97,4765.73 5177.97,4765.73ZM4759.23,4765.22L4758.98,4765.25L4759.23,4765.22L4761.84,4764.9L4759.23,4765.22ZM5168.62,4764.59C5169.49,4764.69 5170.36,4764.8 5171.23,4764.9C5170.36,4764.8 5169.49,4764.69 5168.62,4764.59ZM4772.32,4763.66C4768.83,4764.06 4765.35,4764.48 4761.84,4764.9L4764.45,4764.59C4767.07,4764.27 4769.69,4763.96 4772.32,4763.66ZM5139.77,4761.38C5146.19,4762.04 5152.59,4762.73 5158.99,4763.46C5152.61,4762.73 5146.2,4762.04 5139.77,4761.38ZM4795.93,4761.11C4795.05,4761.2 4794.17,4761.29 4793.3,4761.38C4794.17,4761.29 4795.05,4761.2 4795.93,4761.11ZM5136.33,4761.03C5134.85,4760.88 5133.36,4760.73 5131.88,4760.59L5134.51,4760.85L5136.33,4761.03ZM4801.19,4760.59L4799.38,4760.77L4801.19,4760.59L4803.82,4760.33L4801.19,4760.59ZM5126.61,4760.08C5127.49,4760.17 5128.37,4760.25 5129.25,4760.33C5128.37,4760.25 5127.49,4760.17 5126.61,4760.08ZM4819.64,4758.89C4815.73,4759.23 4811.82,4759.58 4807.92,4759.95C4811.85,4759.58 4815.74,4759.23 4819.64,4758.89ZM5110.79,4758.66C5112.1,4758.77 5113.41,4758.89 5114.72,4759C5113.45,4758.89 5112.12,4758.78 5110.79,4758.66ZM4838.16,4757.39C4832.87,4757.79 4827.59,4758.21 4822.28,4758.66L4824.93,4758.44C4829.33,4758.07 4833.74,4757.72 4838.16,4757.39ZM5100.21,4757.8L5102.86,4758.01L5103.64,4758.07C5102.49,4757.98 5101.35,4757.89 5100.21,4757.8ZM5089.62,4756.99C5091.82,4757.15 5094.02,4757.32 5096.22,4757.49C5093.98,4757.32 5091.8,4757.15 5089.62,4756.99ZM4846.42,4756.78C4845.43,4756.85 4844.44,4756.92 4843.45,4756.99L4846.11,4756.81L4846.42,4756.78ZM5071.99,4755.81C5076.1,4756.07 5080.21,4756.34 5084.31,4756.62C5080.2,4756.34 5076.1,4756.07 5071.99,4755.81ZM4870.02,4755.28C4866.57,4755.48 4863.13,4755.68 4859.7,4755.9C4863.1,4755.68 4866.56,4755.48 4870.02,4755.28ZM5050.73,4754.63C5054.84,4754.83 5058.95,4755.05 5063.05,4755.28C5058.93,4755.05 5054.84,4754.83 5050.73,4754.63ZM4884.03,4754.55C4882.91,4754.6 4881.8,4754.65 4880.68,4754.71L4883.34,4754.58L4884.03,4754.55ZM5039.43,4754.11C5042.64,4754.24 5045.84,4754.39 5049.05,4754.55C5045.81,4754.39 5042.62,4754.24 5039.43,4754.11ZM4894.02,4754.09L4893.75,4754.1L4894.02,4754.09L4894.31,4754.08L4894.02,4754.09ZM4990.79,4752.73C5006.78,4752.95 5022.71,4753.4 5038.58,4754.07C5022.68,4753.4 5006.76,4752.95 4990.79,4752.73ZM4942.28,4752.73L4941.29,4752.74L4942.28,4752.73L4944.97,4752.69L4942.28,4752.73ZM4947.66,4752.66L4950.36,4752.63L4947.66,4752.66L4944.97,4752.69C4945.87,4752.68 4946.77,4752.67 4947.66,4752.66ZM4979.19,4752.6C4980.52,4752.61 4981.85,4752.62 4983.17,4752.64C4981.84,4752.62 4980.51,4752.61 4979.19,4752.6ZM4958.44,4752.57C4957.54,4752.58 4956.64,4752.58 4955.75,4752.59C4956.64,4752.58 4957.54,4752.58 4958.44,4752.57ZM4971.93,4752.56L4971.97,4752.56L4971.93,4752.56ZM4966.53,4752.55C4964.74,4752.55 4962.94,4752.56 4961.14,4752.56L4963.84,4752.56L4966.53,4752.55ZM3833.41,6575.94C3827.75,6530.02 3824.85,6483.24 3824.85,6435.79C3824.85,5805.68 4336.42,5294.11 4966.53,5294.11C5596.65,5294.11 6108.22,5805.68 6108.22,6435.79C6108.22,6483.24 6105.32,6530.02 6099.67,6575.94C6030.51,7140.05 5549.2,7577.48 4966.53,7577.48C4383.87,7577.48 3902.57,7140.05 3833.41,6575.94Z" style="fill:white;"/>
        </g>
    </g>
</svg>
