<svg width="2845" height="2278" viewBox="0 0 2845 2278" fill="none" xmlns="http://www.w3.org/2000/svg">
<g filter="url(#filter0_f_143_161)">
<path d="M1272 1495.5C1272 1720.56 1089.78 1903 865 1903C640.22 1903 458 1720.56 458 1495.5C458 1270.44 640.22 1088 865 1088C1089.78 1088 1272 1270.44 1272 1495.5Z" fill="#2A2939"/>
</g>
<g filter="url(#filter1_f_143_161)">
<path d="M1654 1587.5C1654 1835.75 1317.32 2037 902 2037C486.682 2037 150 1835.75 150 1587.5C150 1339.25 486.682 1138 902 1138C1317.32 1138 1654 1339.25 1654 1587.5Z" fill="#2A2939"/>
</g>
<g filter="url(#filter2_f_143_161)">
<path d="M1909 1273.5C1909 1498.56 1726.78 1681 1502 1681C1277.22 1681 1095 1498.56 1095 1273.5C1095 1048.44 1277.22 866 1502 866C1726.78 866 1909 1048.44 1909 1273.5Z" fill="#22262F"/>
</g>
<g filter="url(#filter3_f_143_161)">
<path d="M2339 1282.5C2339 1507.56 2156.78 1690 1932 1690C1707.22 1690 1525 1507.56 1525 1282.5C1525 1057.44 1707.22 875 1932 875C2156.78 875 2339 1057.44 2339 1282.5Z" fill="#191F2F"/>
</g>
<g filter="url(#filter4_f_143_161)">
<path d="M2416 866.5C2416 1091.56 2233.78 1274 2009 1274C1784.22 1274 1602 1091.56 1602 866.5C1602 641.444 1784.22 459 2009 459C2233.78 459 2416 641.444 2416 866.5Z" fill="#191F2F"/>
</g>
<g filter="url(#filter5_f_143_161)">
<path d="M1932 795.5C1932 1020.56 1749.78 1203 1525 1203C1300.22 1203 1118 1020.56 1118 795.5C1118 570.444 1300.22 388 1525 388C1749.78 388 1932 570.444 1932 795.5Z" fill="#22262F"/>
</g>
<g filter="url(#filter6_f_143_161)">
<path d="M2009 557.5C2009 782.556 1826.78 965 1602 965C1377.22 965 1195 782.556 1195 557.5C1195 332.444 1377.22 150 1602 150C1826.78 150 2009 332.444 2009 557.5Z" fill="#22262F"/>
</g>
<g filter="url(#filter7_f_143_161)">
<path d="M1744 1495.5C1744 1720.56 1561.78 1903 1337 1903C1112.22 1903 930 1720.56 930 1495.5C930 1270.44 1112.22 1088 1337 1088C1561.78 1088 1744 1270.44 1744 1495.5Z" fill="#22262F"/>
</g>
<g filter="url(#filter8_f_143_161)">
<path d="M2209 1534.5C2209 1759.56 2026.78 1942 1802 1942C1577.22 1942 1395 1759.56 1395 1534.5C1395 1309.44 1577.22 1127 1802 1127C2026.78 1127 2209 1309.44 2209 1534.5Z" fill="#191F2F"/>
</g>
<g filter="url(#filter9_f_143_161)">
<path d="M2507 1558.5C2507 1783.56 2324.78 1966 2100 1966C1875.22 1966 1693 1783.56 1693 1558.5C1693 1333.44 1875.22 1151 2100 1151C2324.78 1151 2507 1333.44 2507 1558.5Z" fill="#191F2F"/>
</g>
<g filter="url(#filter10_f_143_161)">
<path d="M2100 1720.5C2100 1945.56 1917.78 2128 1693 2128C1468.22 2128 1286 1945.56 1286 1720.5C1286 1495.44 1468.22 1313 1693 1313C1917.78 1313 2100 1495.44 2100 1720.5Z" fill="#191F2F"/>
</g>
<g filter="url(#filter11_f_143_161)">
<path d="M2695 1030.5C2695 1255.56 2512.78 1438 2288 1438C2063.22 1438 1881 1255.56 1881 1030.5C1881 805.444 2063.22 623 2288 623C2512.78 623 2695 805.444 2695 1030.5Z" fill="#191F2F"/>
</g>
<g filter="url(#filter12_f_143_161)">
<path d="M2640 654.5C2640 879.556 2457.78 1062 2233 1062C2008.22 1062 1826 879.556 1826 654.5C1826 429.444 2008.22 247 2233 247C2457.78 247 2640 429.444 2640 654.5Z" fill="#191F2F"/>
</g>
<g filter="url(#filter13_f_143_161)">
<path d="M1826 1456.5C1826 1681.56 1643.78 1864 1419 1864C1194.22 1864 1012 1681.56 1012 1456.5C1012 1231.44 1194.22 1049 1419 1049C1643.78 1049 1826 1231.44 1826 1456.5Z" fill="#191F2F"/>
</g>
<g filter="url(#filter14_f_143_161)">
<path d="M1744 1202.5C1744 1427.56 1561.78 1610 1337 1610C1112.22 1610 930 1427.56 930 1202.5C930 977.444 1112.22 795 1337 795C1561.78 795 1744 977.444 1744 1202.5Z" fill="#22262F"/>
</g>
<g filter="url(#filter15_f_143_161)">
<path d="M1419 759.5C1419 984.556 1236.78 1167 1012 1167C787.22 1167 605 984.556 605 759.5C605 534.444 787.22 352 1012 352C1236.78 352 1419 534.444 1419 759.5Z" fill="#2A2939"/>
</g>
<g filter="url(#filter16_f_143_161)">
<path d="M1525 557.5C1525 769.301 1239.36 941 887 941C534.642 941 249 769.301 249 557.5C249 345.699 534.642 174 887 174C1239.36 174 1525 345.699 1525 557.5Z" fill="#2A2939"/>
</g>
<g filter="url(#filter17_f_143_161)">
<path d="M1371 1101.5C1371 1326.56 1188.78 1509 964 1509C739.22 1509 557 1326.56 557 1101.5C557 876.444 739.22 694 964 694C1188.78 694 1371 876.444 1371 1101.5Z" fill="#2A2939"/>
</g>
<g filter="url(#filter18_f_143_161)">
<path d="M989 1015.5C989 1240.56 806.78 1423 582 1423C357.22 1423 175 1240.56 175 1015.5C175 790.444 357.22 608 582 608C806.78 608 989 790.444 989 1015.5Z" fill="#2A2939"/>
</g>
<defs>
<filter id="filter0_f_143_161" x="308" y="938" width="1114" height="1115" filterUnits="userSpaceOnUse" color-interpolation-filters="sRGB">
<feFlood flood-opacity="0" result="BackgroundImageFix"/>
<feBlend mode="normal" in="SourceGraphic" in2="BackgroundImageFix" result="shape"/>
<feGaussianBlur stdDeviation="75" result="effect1_foregroundBlur_143_161"/>
</filter>
<filter id="filter1_f_143_161" x="0" y="988" width="1804" height="1199" filterUnits="userSpaceOnUse" color-interpolation-filters="sRGB">
<feFlood flood-opacity="0" result="BackgroundImageFix"/>
<feBlend mode="normal" in="SourceGraphic" in2="BackgroundImageFix" result="shape"/>
<feGaussianBlur stdDeviation="75" result="effect1_foregroundBlur_143_161"/>
</filter>
<filter id="filter2_f_143_161" x="945" y="716" width="1114" height="1115" filterUnits="userSpaceOnUse" color-interpolation-filters="sRGB">
<feFlood flood-opacity="0" result="BackgroundImageFix"/>
<feBlend mode="normal" in="SourceGraphic" in2="BackgroundImageFix" result="shape"/>
<feGaussianBlur stdDeviation="75" result="effect1_foregroundBlur_143_161"/>
</filter>
<filter id="filter3_f_143_161" x="1375" y="725" width="1114" height="1115" filterUnits="userSpaceOnUse" color-interpolation-filters="sRGB">
<feFlood flood-opacity="0" result="BackgroundImageFix"/>
<feBlend mode="normal" in="SourceGraphic" in2="BackgroundImageFix" result="shape"/>
<feGaussianBlur stdDeviation="75" result="effect1_foregroundBlur_143_161"/>
</filter>
<filter id="filter4_f_143_161" x="1452" y="309" width="1114" height="1115" filterUnits="userSpaceOnUse" color-interpolation-filters="sRGB">
<feFlood flood-opacity="0" result="BackgroundImageFix"/>
<feBlend mode="normal" in="SourceGraphic" in2="BackgroundImageFix" result="shape"/>
<feGaussianBlur stdDeviation="75" result="effect1_foregroundBlur_143_161"/>
</filter>
<filter id="filter5_f_143_161" x="968" y="238" width="1114" height="1115" filterUnits="userSpaceOnUse" color-interpolation-filters="sRGB">
<feFlood flood-opacity="0" result="BackgroundImageFix"/>
<feBlend mode="normal" in="SourceGraphic" in2="BackgroundImageFix" result="shape"/>
<feGaussianBlur stdDeviation="75" result="effect1_foregroundBlur_143_161"/>
</filter>
<filter id="filter6_f_143_161" x="1045" y="0" width="1114" height="1115" filterUnits="userSpaceOnUse" color-interpolation-filters="sRGB">
<feFlood flood-opacity="0" result="BackgroundImageFix"/>
<feBlend mode="normal" in="SourceGraphic" in2="BackgroundImageFix" result="shape"/>
<feGaussianBlur stdDeviation="75" result="effect1_foregroundBlur_143_161"/>
</filter>
<filter id="filter7_f_143_161" x="780" y="938" width="1114" height="1115" filterUnits="userSpaceOnUse" color-interpolation-filters="sRGB">
<feFlood flood-opacity="0" result="BackgroundImageFix"/>
<feBlend mode="normal" in="SourceGraphic" in2="BackgroundImageFix" result="shape"/>
<feGaussianBlur stdDeviation="75" result="effect1_foregroundBlur_143_161"/>
</filter>
<filter id="filter8_f_143_161" x="1245" y="977" width="1114" height="1115" filterUnits="userSpaceOnUse" color-interpolation-filters="sRGB">
<feFlood flood-opacity="0" result="BackgroundImageFix"/>
<feBlend mode="normal" in="SourceGraphic" in2="BackgroundImageFix" result="shape"/>
<feGaussianBlur stdDeviation="75" result="effect1_foregroundBlur_143_161"/>
</filter>
<filter id="filter9_f_143_161" x="1543" y="1001" width="1114" height="1115" filterUnits="userSpaceOnUse" color-interpolation-filters="sRGB">
<feFlood flood-opacity="0" result="BackgroundImageFix"/>
<feBlend mode="normal" in="SourceGraphic" in2="BackgroundImageFix" result="shape"/>
<feGaussianBlur stdDeviation="75" result="effect1_foregroundBlur_143_161"/>
</filter>
<filter id="filter10_f_143_161" x="1136" y="1163" width="1114" height="1115" filterUnits="userSpaceOnUse" color-interpolation-filters="sRGB">
<feFlood flood-opacity="0" result="BackgroundImageFix"/>
<feBlend mode="normal" in="SourceGraphic" in2="BackgroundImageFix" result="shape"/>
<feGaussianBlur stdDeviation="75" result="effect1_foregroundBlur_143_161"/>
</filter>
<filter id="filter11_f_143_161" x="1731" y="473" width="1114" height="1115" filterUnits="userSpaceOnUse" color-interpolation-filters="sRGB">
<feFlood flood-opacity="0" result="BackgroundImageFix"/>
<feBlend mode="normal" in="SourceGraphic" in2="BackgroundImageFix" result="shape"/>
<feGaussianBlur stdDeviation="75" result="effect1_foregroundBlur_143_161"/>
</filter>
<filter id="filter12_f_143_161" x="1676" y="97" width="1114" height="1115" filterUnits="userSpaceOnUse" color-interpolation-filters="sRGB">
<feFlood flood-opacity="0" result="BackgroundImageFix"/>
<feBlend mode="normal" in="SourceGraphic" in2="BackgroundImageFix" result="shape"/>
<feGaussianBlur stdDeviation="75" result="effect1_foregroundBlur_143_161"/>
</filter>
<filter id="filter13_f_143_161" x="862" y="899" width="1114" height="1115" filterUnits="userSpaceOnUse" color-interpolation-filters="sRGB">
<feFlood flood-opacity="0" result="BackgroundImageFix"/>
<feBlend mode="normal" in="SourceGraphic" in2="BackgroundImageFix" result="shape"/>
<feGaussianBlur stdDeviation="75" result="effect1_foregroundBlur_143_161"/>
</filter>
<filter id="filter14_f_143_161" x="780" y="645" width="1114" height="1115" filterUnits="userSpaceOnUse" color-interpolation-filters="sRGB">
<feFlood flood-opacity="0" result="BackgroundImageFix"/>
<feBlend mode="normal" in="SourceGraphic" in2="BackgroundImageFix" result="shape"/>
<feGaussianBlur stdDeviation="75" result="effect1_foregroundBlur_143_161"/>
</filter>
<filter id="filter15_f_143_161" x="455" y="202" width="1114" height="1115" filterUnits="userSpaceOnUse" color-interpolation-filters="sRGB">
<feFlood flood-opacity="0" result="BackgroundImageFix"/>
<feBlend mode="normal" in="SourceGraphic" in2="BackgroundImageFix" result="shape"/>
<feGaussianBlur stdDeviation="75" result="effect1_foregroundBlur_143_161"/>
</filter>
<filter id="filter16_f_143_161" x="99" y="24" width="1576" height="1067" filterUnits="userSpaceOnUse" color-interpolation-filters="sRGB">
<feFlood flood-opacity="0" result="BackgroundImageFix"/>
<feBlend mode="normal" in="SourceGraphic" in2="BackgroundImageFix" result="shape"/>
<feGaussianBlur stdDeviation="75" result="effect1_foregroundBlur_143_161"/>
</filter>
<filter id="filter17_f_143_161" x="407" y="544" width="1114" height="1115" filterUnits="userSpaceOnUse" color-interpolation-filters="sRGB">
<feFlood flood-opacity="0" result="BackgroundImageFix"/>
<feBlend mode="normal" in="SourceGraphic" in2="BackgroundImageFix" result="shape"/>
<feGaussianBlur stdDeviation="75" result="effect1_foregroundBlur_143_161"/>
</filter>
<filter id="filter18_f_143_161" x="25" y="458" width="1114" height="1115" filterUnits="userSpaceOnUse" color-interpolation-filters="sRGB">
<feFlood flood-opacity="0" result="BackgroundImageFix"/>
<feBlend mode="normal" in="SourceGraphic" in2="BackgroundImageFix" result="shape"/>
<feGaussianBlur stdDeviation="75" result="effect1_foregroundBlur_143_161"/>
</filter>
</defs>
</svg>
